<svg xmlns="http://www.w3.org/2000/svg" width="1440" height="900" viewBox="0 0 1440 900" role="img" aria-label="LanLens SNMP switch port visualization mockup">
  <rect width="1440" height="900" fill="#0f172a"/>
  <rect x="40" y="36" width="252" height="828" rx="18" fill="#111827" stroke="#263244"/>
  <text x="72" y="88" fill="#e5e7eb" font-family="Inter, Arial, sans-serif" font-size="28" font-weight="700">LanLens</text>
  <rect x="72" y="138" width="188" height="42" rx="10" fill="#1f2937"/>
  <text x="94" y="165" fill="#cbd5e1" font-family="Inter, Arial, sans-serif" font-size="15">Dashboard</text>
  <rect x="72" y="196" width="188" height="42" rx="10" fill="#2563eb"/>
  <text x="94" y="223" fill="#ffffff" font-family="Inter, Arial, sans-serif" font-size="15">Devices</text>
  <text x="94" y="281" fill="#94a3b8" font-family="Inter, Arial, sans-serif" font-size="15">Network map</text>
  <text x="94" y="333" fill="#94a3b8" font-family="Inter, Arial, sans-serif" font-size="15">Settings</text>
  <rect x="330" y="36" width="1070" height="828" rx="22" fill="#0b1120" stroke="#263244"/>
  <text x="378" y="91" fill="#f8fafc" font-family="Inter, Arial, sans-serif" font-size="34" font-weight="750">core-switch-01</text>
  <text x="378" y="124" fill="#94a3b8" font-family="Inter, Arial, sans-serif" font-size="16">Switch - UniFi / Ubiquiti - 192.168.10.2</text>
  <rect x="1124" y="76" width="92" height="32" rx="16" fill="#052e1a" stroke="#16a34a"/>
  <circle cx="1145" cy="92" r="5" fill="#22c55e"/>
  <text x="1158" y="98" fill="#bbf7d0" font-family="Inter, Arial, sans-serif" font-size="13" font-weight="600">Online</text>
  <rect x="378" y="160" width="968" height="96" rx="16" fill="#111827" stroke="#263244"/>
  <text x="410" y="199" fill="#94a3b8" font-family="Inter, Arial, sans-serif" font-size="13">IP address</text>
  <text x="410" y="229" fill="#60a5fa" font-family="Inter, Arial, sans-serif" font-size="23" font-weight="700">192.168.10.2</text>
  <text x="650" y="199" fill="#94a3b8" font-family="Inter, Arial, sans-serif" font-size="13">MAC address</text>
  <text x="650" y="229" fill="#e5e7eb" font-family="Inter, Arial, sans-serif" font-size="23" font-weight="700">a8:5e:45:10:02:01</text>
  <text x="942" y="199" fill="#94a3b8" font-family="Inter, Arial, sans-serif" font-size="13">SNMP interfaces</text>
  <text x="942" y="229" fill="#e5e7eb" font-family="Inter, Arial, sans-serif" font-size="23" font-weight="700">16</text>
  <text x="1150" y="199" fill="#94a3b8" font-family="Inter, Arial, sans-serif" font-size="13">Learned MACs</text>
  <text x="1150" y="229" fill="#e5e7eb" font-family="Inter, Arial, sans-serif" font-size="23" font-weight="700">9</text>
  <rect x="378" y="294" width="968" height="360" rx="16" fill="#111827" stroke="#263244"/>
  <text x="410" y="336" fill="#e5e7eb" font-family="Inter, Arial, sans-serif" font-size="20" font-weight="700">SNMP switch port visualization</text>
  <text x="410" y="364" fill="#94a3b8" font-family="Inter, Arial, sans-serif" font-size="14">16 SNMP interfaces with MAC/VLAN endpoint context. Hover a port to inspect the learned device; click to open the matched device.</text>
  <g font-family="Inter, Arial, sans-serif" font-size="12">
    <circle cx="1134" cy="334" r="6" fill="#22c55e"/>
    <text x="1148" y="339" fill="#cbd5e1">Active</text>
    <circle cx="1228" cy="334" r="6" fill="#475569"/>
    <text x="1242" y="339" fill="#cbd5e1">Inactive</text>
  </g>
  <g transform="translate(410 398)" font-family="Inter, Arial, sans-serif">
    <g>
      <rect width="96" height="86" rx="12" fill="#052e1a" stroke="#22c55e"/>
      <rect x="14" y="14" width="68" height="8" rx="4" fill="#22c55e"/>
      <text x="14" y="45" fill="#f8fafc" font-size="14" font-weight="700">Gi1/0/1</text>
      <text x="14" y="66" fill="#86efac" font-size="12">Office-PC</text>
    </g>
    <g transform="translate(112 0)">
      <rect width="96" height="86" rx="12" fill="#052e1a" stroke="#22c55e"/>
      <rect x="14" y="14" width="68" height="8" rx="4" fill="#22c55e"/>
      <text x="14" y="45" fill="#f8fafc" font-size="14" font-weight="700">Gi1/0/2</text>
      <text x="14" y="66" fill="#86efac" font-size="12">NAS VLAN20</text>
    </g>
    <g transform="translate(224 0)">
      <rect width="96" height="86" rx="12" fill="#1e293b" stroke="#334155"/>
      <rect x="14" y="14" width="68" height="8" rx="4" fill="#475569"/>
      <text x="14" y="45" fill="#cbd5e1" font-size="14" font-weight="700">Gi1/0/3</text>
      <text x="14" y="66" fill="#94a3b8" font-size="12">No endpoint</text>
    </g>
    <g transform="translate(336 0)">
      <rect width="96" height="86" rx="12" fill="#052e1a" stroke="#22c55e"/>
      <rect x="14" y="14" width="68" height="8" rx="4" fill="#22c55e"/>
      <text x="14" y="45" fill="#f8fafc" font-size="14" font-weight="700">Gi1/0/4</text>
      <text x="14" y="66" fill="#86efac" font-size="12">AP EG</text>
    </g>
    <g transform="translate(448 0)">
      <rect width="96" height="86" rx="12" fill="#1e293b" stroke="#334155"/>
      <rect x="14" y="14" width="68" height="8" rx="4" fill="#475569"/>
      <text x="14" y="45" fill="#cbd5e1" font-size="14" font-weight="700">Gi1/0/5</text>
      <text x="14" y="66" fill="#94a3b8" font-size="12">No endpoint</text>
    </g>
    <g transform="translate(560 0)">
      <rect width="96" height="86" rx="12" fill="#052e1a" stroke="#22c55e"/>
      <rect x="14" y="14" width="68" height="8" rx="4" fill="#22c55e"/>
      <text x="14" y="45" fill="#f8fafc" font-size="14" font-weight="700">Gi1/0/6</text>
      <text x="14" y="66" fill="#86efac" font-size="12">Printer</text>
    </g>
    <g transform="translate(672 0)">
      <rect width="96" height="86" rx="12" fill="#1e293b" stroke="#334155"/>
      <rect x="14" y="14" width="68" height="8" rx="4" fill="#475569"/>
      <text x="14" y="45" fill="#cbd5e1" font-size="14" font-weight="700">Gi1/0/7</text>
      <text x="14" y="66" fill="#94a3b8" font-size="12">No endpoint</text>
    </g>
    <g transform="translate(784 0)">
      <rect width="96" height="86" rx="12" fill="#052e1a" stroke="#22c55e"/>
      <rect x="14" y="14" width="68" height="8" rx="4" fill="#22c55e"/>
      <text x="14" y="45" fill="#f8fafc" font-size="14" font-weight="700">Gi1/0/8</text>
      <text x="14" y="66" fill="#86efac" font-size="12">Uplink</text>
    </g>
  </g>
  <g transform="translate(410 502)" font-family="Inter, Arial, sans-serif">
    <g>
      <rect width="96" height="86" rx="12" fill="#052e1a" stroke="#22c55e"/>
      <rect x="14" y="14" width="68" height="8" rx="4" fill="#22c55e"/>
      <text x="14" y="45" fill="#f8fafc" font-size="14" font-weight="700">Gi1/0/9</text>
      <text x="14" y="66" fill="#86efac" font-size="12">Camera</text>
    </g>
    <g transform="translate(112 0)">
      <rect width="96" height="86" rx="12" fill="#1e293b" stroke="#334155"/>
      <rect x="14" y="14" width="68" height="8" rx="4" fill="#475569"/>
      <text x="14" y="45" fill="#cbd5e1" font-size="14" font-weight="700">Gi1/0/10</text>
      <text x="14" y="66" fill="#94a3b8" font-size="12">No endpoint</text>
    </g>
    <g transform="translate(224 0)">
      <rect width="96" height="86" rx="12" fill="#052e1a" stroke="#22c55e"/>
      <rect x="14" y="14" width="68" height="8" rx="4" fill="#22c55e"/>
      <text x="14" y="45" fill="#f8fafc" font-size="14" font-weight="700">Gi1/0/11</text>
      <text x="14" y="66" fill="#86efac" font-size="12">Laptop</text>
    </g>
    <g transform="translate(336 0)">
      <rect width="96" height="86" rx="12" fill="#052e1a" stroke="#22c55e"/>
      <rect x="14" y="14" width="68" height="8" rx="4" fill="#22c55e"/>
      <text x="14" y="45" fill="#f8fafc" font-size="14" font-weight="700">Gi1/0/12</text>
      <text x="14" y="66" fill="#86efac" font-size="12">HomeLab</text>
    </g>
    <g transform="translate(448 0)">
      <rect width="96" height="86" rx="12" fill="#1e293b" stroke="#334155"/>
      <rect x="14" y="14" width="68" height="8" rx="4" fill="#475569"/>
      <text x="14" y="45" fill="#cbd5e1" font-size="14" font-weight="700">Gi1/0/13</text>
      <text x="14" y="66" fill="#94a3b8" font-size="12">No endpoint</text>
    </g>
    <g transform="translate(560 0)">
      <rect width="96" height="86" rx="12" fill="#1e293b" stroke="#334155"/>
      <rect x="14" y="14" width="68" height="8" rx="4" fill="#475569"/>
      <text x="14" y="45" fill="#cbd5e1" font-size="14" font-weight="700">Gi1/0/14</text>
      <text x="14" y="66" fill="#94a3b8" font-size="12">No endpoint</text>
    </g>
    <g transform="translate(672 0)">
      <rect width="96" height="86" rx="12" fill="#1e293b" stroke="#334155"/>
      <rect x="14" y="14" width="68" height="8" rx="4" fill="#475569"/>
      <text x="14" y="45" fill="#cbd5e1" font-size="14" font-weight="700">Gi1/0/15</text>
      <text x="14" y="66" fill="#94a3b8" font-size="12">No endpoint</text>
    </g>
    <g transform="translate(784 0)">
      <rect width="96" height="86" rx="12" fill="#052e1a" stroke="#22c55e"/>
      <rect x="14" y="14" width="68" height="8" rx="4" fill="#22c55e"/>
      <text x="14" y="45" fill="#f8fafc" font-size="14" font-weight="700">Gi1/0/16</text>
      <text x="14" y="66" fill="#86efac" font-size="12">Router</text>
    </g>
  </g>
  <rect x="716" y="480" width="336" height="122" rx="14" fill="#020617" stroke="#60a5fa"/>
  <text x="740" y="514" fill="#f8fafc" font-family="Inter, Arial, sans-serif" font-size="16" font-weight="700">Gi1/0/12 - HomeLab</text>
  <text x="740" y="542" fill="#cbd5e1" font-family="Inter, Arial, sans-serif" font-size="13">MAC: 00:11:22:33:44:55</text>
  <text x="740" y="568" fill="#cbd5e1" font-family="Inter, Arial, sans-serif" font-size="13">VLAN 20 - Server network</text>
  <text x="740" y="594" fill="#60a5fa" font-family="Inter, Arial, sans-serif" font-size="13" font-weight="700">Click opens device detail</text>
</svg>
